<?xml version="1.0" encoding="UTF-8" standalone="no"?>
<svg
   xmlns:dc="http://purl.org/dc/elements/1.1/"
   xmlns:cc="http://creativecommons.org/ns#"
   xmlns:rdf="http://www.w3.org/1999/02/22-rdf-syntax-ns#"
   xmlns:svg="http://www.w3.org/2000/svg"
   xmlns="http://www.w3.org/2000/svg"
   id="svg15"
   version="1.1"
   style="display: flex;  "
   viewBox="0 0 300 300"><metadata
   id="metadata19">
  <rdf:RDF>
    <cc:Work
       rdf:about="">
      <dc:format>image/svg+xml</dc:format>
      <dc:type
         rdf:resource="http://purl.org/dc/dcmitype/StillImage" />
    </cc:Work>
  </rdf:RDF>
</metadata>
<defs
   id="defs7">
  <linearGradient
     y2="0%"
     x2="100%"
     y1="100%"
     x1="0%"
     id="bones-gradient">
    <stop
       id="stop2"
       style="stop-color: #a0c519;"
       offset="0%" />
    <stop
       id="stop4"
       style="stop-color:#4C9F8D;"
       offset="100%" />
  </linearGradient>
</defs>
<g
   id="g13"
   transform="rotate(-30 100 120)     translate(15 1.5)     scale(1 1)     skewX(50)     "
   fill="url(#bones-gradient)">
  <path
     id="path9"
     d="..."
     class="bones" />
  <path
     id="path11"
     transform="translate(100 100) "
     d="M34.4,-66.4C39.1,-56.9,33.7,-36.6,32.4,-23.7C31.1,-10.9,34.1,-5.4,34,0C34,5.4,30.9,10.7,27.7,15.8C24.4,20.9,21,25.6,16.3,30.6C11.7,35.5,5.8,40.7,1,38.9C-3.8,37.2,-7.6,28.5,-14.4,24.7C-21.1,21,-30.7,22.2,-42.4,18.9C-54.1,15.6,-67.8,7.8,-64.8,1.7C-61.9,-4.4,-42.3,-8.7,-34,-17.9C-25.8,-27.1,-28.8,-41.2,-25,-51.2C-21.3,-61.3,-10.6,-67.3,2.1,-71C14.9,-74.6,29.7,-75.9,34.4,-66.4Z" />
</g>



   /&gt;
</svg>
